<svg width="401" height="229" viewBox="0 0 401 229" fill="none" xmlns="http://www.w3.org/2000/svg">
<path d="M124.243 15.4841C126.385 10.8432 123.819 -0.764032 120.166 0.150309C108.963 2.95429 76.3651 60.9238 61.4662 89.5581C60.1769 92.0361 57.1773 98.5842 59.2601 109.35C61.343 120.117 49.3251 142.407 43.0557 152.207L48.1968 154.448C59.6085 144.857 66.7284 115.64 67.0611 110.604C67.3843 105.714 65.0323 100.53 67.5664 95.4066C74.1659 82.0632 106.678 27.5764 111.598 24.1003C114.916 21.7563 117.789 20.5198 120.475 19.6336C120.475 19.6336 122.568 19.1098 124.243 15.4841Z" fill="black"/>
<path d="M52.4329 158.692C45.1785 159.738 40.6131 157.883 37.3173 150.37C25.4448 153.342 -1.29376 183.443 1.00331 228.724C52.4542 209.753 55.3631 161.165 52.4329 158.692Z" fill="black"/>
<path d="M149.298 150.637L141.545 150.598L112.325 105.377L112.099 150.45L104.346 150.411L104.639 91.9205L112.393 91.9595L141.692 137.382L141.919 92.1078L149.592 92.1463L149.298 150.637Z" fill="black"/>
<path d="M171.272 150.747L163.559 150.709L163.853 92.218L171.566 92.2567L171.272 150.747Z" fill="black"/>
<path d="M195.669 92.3778L214.552 140.198L233.913 92.5699L243.916 92.6202L243.622 151.111L235.909 151.072L236.024 128.294L236.87 103.713L217.43 150.979L211.525 150.95L192.6 103.611L193.24 128.08L193.126 150.857L185.413 150.818L185.707 92.3278L195.669 92.3778Z" fill="black"/>
<path d="M257.241 151.179L257.534 92.6886L276.656 92.7847C283.004 92.8166 287.764 94.1528 290.938 96.7934C294.138 99.4341 295.726 103.325 295.7 108.468C295.686 111.199 294.897 113.619 293.333 115.727C291.77 117.808 289.646 119.418 286.962 120.556C290.118 121.456 292.6 123.155 294.408 125.655C296.244 128.128 297.153 131.079 297.136 134.507C297.11 139.756 295.388 143.872 291.972 146.854C288.556 149.837 283.741 151.312 277.528 151.281L257.241 151.179ZM265.091 123.861L264.985 144.911L277.72 144.975C281.309 144.993 284.139 144.083 286.21 142.246C288.309 140.381 289.366 137.816 289.382 134.548C289.418 127.505 285.606 123.964 277.946 123.925L265.091 123.861ZM265.122 117.674L276.772 117.733C280.147 117.75 282.842 116.92 284.859 115.242C286.903 113.565 287.932 111.281 287.947 108.388C287.963 105.175 287.037 102.84 285.17 101.384C283.303 99.9019 280.454 99.1511 276.625 99.1319L265.216 99.0746L265.122 117.674Z" fill="black"/>
<path d="M349.97 93.153L349.771 132.923C349.716 138.44 347.953 142.944 344.48 146.435C341.035 149.926 336.365 151.871 330.471 152.27L328.422 152.34C322.021 152.308 316.928 150.555 313.142 147.081C309.356 143.607 307.452 138.844 307.429 132.791L307.629 92.9403L315.262 92.9786L315.063 132.588C315.042 136.82 316.19 140.12 318.508 142.488C320.826 144.83 324.141 146.012 328.453 146.033C332.819 146.055 336.159 144.907 338.474 142.589C340.815 140.27 341.997 136.995 342.018 132.764L342.217 93.114L349.97 93.153Z" fill="black"/>
<path d="M379.214 125.72C372.608 123.785 367.799 121.431 364.787 118.657C361.801 115.857 360.319 112.421 360.339 108.35C360.362 103.744 362.216 99.9502 365.9 96.9691C369.611 93.9614 374.413 92.4723 380.304 92.5019C384.322 92.5221 387.893 93.3167 391.019 94.8858C394.171 96.455 396.597 98.6097 398.298 101.35C400.025 104.09 400.88 107.081 400.864 110.322L393.111 110.283C393.128 106.747 392.018 103.97 389.778 101.95C387.539 99.9033 384.37 98.8697 380.273 98.8491C376.47 98.83 373.493 99.6587 371.342 101.335C369.218 102.985 368.148 105.296 368.133 108.269C368.121 110.653 369.115 112.68 371.116 114.35C373.143 115.994 376.577 117.511 381.417 118.901C386.285 120.292 390.08 121.824 392.803 123.498C395.554 125.146 397.579 127.071 398.881 129.273C400.209 131.476 400.865 134.064 400.85 137.037C400.826 141.777 398.959 145.571 395.249 148.418C391.539 151.238 386.591 152.633 380.404 152.601C376.387 152.581 372.641 151.799 369.168 150.255C365.694 148.684 363.013 146.555 361.125 143.867C359.264 141.18 358.342 138.135 358.359 134.734L366.112 134.773C366.094 138.308 367.379 141.113 369.966 143.189C372.581 145.237 376.071 146.272 380.436 146.294C384.507 146.315 387.631 145.5 389.809 143.851C391.986 142.201 393.082 139.944 393.097 137.078C393.111 134.212 392.118 131.998 390.117 130.434C388.116 128.844 384.482 127.273 379.214 125.72Z" fill="black"/>
</svg>
